<svg width="72" height="72" viewBox="0 0 72 72" fill="none" xmlns="http://www.w3.org/2000/svg">
<g clip-path="url(#clip0_1_160)">
<path d="M66.3977 71.269L72.9566 7H0L0.0857143 7.834L6.54857 71.278L6.60343 71.806L36.2023 79H36.6686L66.336 71.8L66.3909 71.272L66.3977 71.269ZM36.5417 21.037H57.7406L57.1029 27.517L36.1886 35.653L36.5383 37.117H56.1634L53.904 59.77L36.4663 64L19.0354 59.776L17.9383 48.928H25.1143L25.6903 54.427L25.7451 54.961L36.3223 57.421H36.7783L47.2389 54.877L47.2903 54.346L48.2777 44.188L48.3566 43.36H17.3383L16.6869 36.841L38.3177 28.738L37.9749 27.268H15.7577L15.1234 21.028H36.5177L36.5417 21.037Z" fill="#AC38E2"/>
</g>
<defs>
<clipPath id="clip0_1_160">
<rect width="72" height="72" fill="white"/>
</clipPath>
</defs>
</svg>
