<svg width="57" height="72" viewBox="0 0 57 72" fill="none" xmlns="http://www.w3.org/2000/svg">
<path d="M42.75 48C50.6201 48 57 42.6274 57 36C57 29.3726 50.6201 24 42.75 24C34.8799 24 28.5 29.3726 28.5 36C28.5 42.6274 34.8799 48 42.75 48Z" fill="#AC38E2"/>
<path fill-rule="evenodd" clip-rule="evenodd" d="M14.25 72C18.0293 72 21.6539 70.7357 24.3263 68.4853C26.9987 66.2348 28.5 63.1826 28.5 60V48H14.25C10.4707 48 6.84612 49.2643 4.17373 51.5147C1.50134 53.7652 0 56.8174 0 60C0 63.1826 1.50134 66.2348 4.17373 68.4853C6.84612 70.7357 10.4707 72 14.25 72V72Z" fill="#AC38E2"/>
<path fill-rule="evenodd" clip-rule="evenodd" d="M14.25 48H28.5V24H14.25C10.4707 24 6.84612 25.2643 4.17373 27.5147C1.50134 29.7652 0 32.8174 0 36C0 39.1826 1.50134 42.2348 4.17373 44.4853C6.84612 46.7357 10.4707 48 14.25 48V48Z" fill="#AC38E2"/>
<path fill-rule="evenodd" clip-rule="evenodd" d="M14.25 24H28.5V0H14.25C10.4707 0 6.84612 1.26428 4.17373 3.51472C1.50134 5.76516 0 8.8174 0 12C0 15.1826 1.50134 18.2348 4.17373 20.4853C6.84612 22.7357 10.4707 24 14.25 24V24Z" fill="#AC38E2"/>
<path fill-rule="evenodd" clip-rule="evenodd" d="M42.75 24H28.5V0H42.75C46.5293 0 50.1539 1.26428 52.8263 3.51472C55.4987 5.76516 57 8.8174 57 12C57 15.1826 55.4987 18.2348 52.8263 20.4853C50.1539 22.7357 46.5293 24 42.75 24Z" fill="#AC38E2"/>
</svg>
