<svg width="72" height="72" viewBox="0 0 72 72" fill="none" xmlns="http://www.w3.org/2000/svg">
<path d="M70.6389 32.7914L39.2006 1.35839C38.7701 0.927744 38.259 0.586122 37.6965 0.353044C37.134 0.119966 36.5311 0 35.9222 0C35.3133 0 34.7104 0.119966 34.1478 0.353044C33.5853 0.586122 33.0742 0.927744 32.6438 1.35839L26.1185 7.88351L34.3989 16.1637C35.3754 15.8302 36.4261 15.7781 37.4308 16.0131C38.4356 16.2482 39.3541 16.7609 40.0814 17.4929C40.8087 18.2249 41.3156 19.1467 41.5442 20.1529C41.7728 21.1592 41.7139 22.2094 41.3742 23.1838L49.353 31.1669C50.5335 30.7513 51.8203 30.75 53.0015 31.1633C54.1828 31.5767 55.1881 32.3799 55.8519 33.4408C56.5157 34.5017 56.7985 35.757 56.6536 37.0001C56.5087 38.2431 55.9448 39.3998 55.0548 40.2796C54.1538 41.1861 52.966 41.7517 51.6942 41.8797C50.4225 42.0077 49.1458 41.6903 48.0822 40.9816C47.0186 40.2728 46.234 39.2168 45.8625 37.9939C45.491 36.771 45.5556 35.457 46.0454 34.2765L38.6065 26.8333V46.4222C39.7373 46.9819 40.642 47.9122 41.1699 49.058C41.6979 50.2039 41.8171 51.496 41.5079 52.7192C41.1986 53.9423 40.4794 55.0225 39.4702 55.7796C38.4611 56.5368 37.2229 56.9253 35.962 56.8803C34.7012 56.8352 33.4939 56.3594 32.5413 55.5322C31.5887 54.7049 30.9485 53.5762 30.7272 52.3341C30.506 51.0921 30.7171 49.8117 31.3255 48.7064C31.9338 47.6012 32.9026 46.7378 34.0703 46.2602V26.4913C33.3966 26.2153 32.7842 25.8086 32.2684 25.2947C31.7526 24.7809 31.3436 24.17 31.065 23.4974C30.7863 22.8247 30.6436 22.1035 30.6451 21.3755C30.6465 20.6474 30.792 19.9268 31.0732 19.2552L22.9144 11.0921L1.35843 32.6474C0.927768 33.0779 0.586137 33.5889 0.353053 34.1515C0.119969 34.714 0 35.3169 0 35.9257C0 36.5346 0.119969 37.1375 0.353053 37.7C0.586137 38.2625 0.927768 38.7736 1.35843 39.2041L32.7968 70.6416C33.2272 71.0723 33.7383 71.4139 34.3008 71.647C34.8634 71.88 35.4663 72 36.0752 72C36.6841 72 37.287 71.88 37.8495 71.647C38.412 71.4139 38.9231 71.0723 39.3536 70.6416L70.6434 39.3526C71.5121 38.4827 72 37.3036 72 36.0743C72 34.8449 71.5121 33.6658 70.6434 32.7959" fill="#AC38E2"/>
</svg>
