<svg width="73" height="72" viewBox="0 0 73 72" fill="none" xmlns="http://www.w3.org/2000/svg">
<path d="M66.3977 64.269L72.9566 0H0L0.0857143 0.834L6.54857 64.278L6.60343 64.806L36.2023 72H36.6686L66.336 64.8L66.3909 64.272L66.3977 64.269ZM36.5417 14.037H57.7406L57.1029 20.517L36.1886 28.653L36.5383 30.117H56.1634L53.904 52.77L36.4663 57L19.0354 52.776L17.9383 41.928H25.1143L25.6903 47.427L25.7451 47.961L36.3223 50.421H36.7783L47.2389 47.877L47.2903 47.346L48.2777 37.188L48.3566 36.36H17.3383L16.6869 29.841L38.3177 21.738L37.9749 20.268H15.7577L15.1234 14.028H36.5177L36.5417 14.037Z" fill="#AC38E2"/>
</svg>
