<svg width="72" height="72" viewBox="0 0 72 72" fill="none" xmlns="http://www.w3.org/2000/svg">
<path fill-rule="evenodd" clip-rule="evenodd" d="M0 0H72V72H0V0ZM55.041 60.36C51.702 60.36 49.815 58.62 48.366 56.25L42.867 59.445C44.853 63.369 48.912 66.363 55.197 66.363C61.623 66.363 66.408 63.027 66.408 56.934C66.408 51.285 63.162 48.774 57.414 46.305L55.722 45.582C52.818 44.322 51.561 43.503 51.561 41.472C51.561 39.831 52.821 38.574 54.801 38.574C56.742 38.574 57.993 39.393 59.154 41.472L64.422 38.091C62.193 34.17 59.103 32.673 54.801 32.673C48.759 32.673 44.892 36.537 44.892 41.613C44.892 47.118 48.132 49.725 53.016 51.804L54.708 52.53C57.795 53.88 59.634 54.702 59.634 57.021C59.634 58.959 57.843 60.36 55.041 60.36ZM28.821 60.315C26.496 60.315 25.527 58.725 24.465 56.835L18.957 60.171C20.553 63.549 23.691 66.351 29.106 66.351C35.103 66.351 39.21 63.162 39.21 56.157V33.057H32.445V56.067C32.445 59.448 31.041 60.315 28.818 60.315H28.821Z" fill="#AC38E2"/>
</svg>
