<svg width="73" height="72" viewBox="0 0 73 72" fill="none" xmlns="http://www.w3.org/2000/svg">
<path d="M62.8587 41.3901C60.3121 41.4074 58.0986 42.2141 56.2454 43.4066C55.5651 41.6353 54.8851 40.0573 54.7653 38.8998C54.6318 37.5497 54.4719 36.7254 54.6318 35.112C54.7919 33.4987 55.5119 31.2013 55.4985 31.026C55.4853 30.8508 55.3383 30.0264 53.8717 30.0091C52.4051 29.9915 51.1384 30.3773 50.9917 30.8858C50.845 31.3942 50.565 32.5518 50.3783 33.7439C50.125 35.4979 47.4451 41.7579 45.9118 45.0372C45.4183 43.7575 44.9917 42.6349 44.8982 41.7406C44.7649 40.3905 44.6048 39.5662 44.7649 37.9529C44.925 36.3395 45.6451 34.0425 45.6316 33.8669C45.6182 33.6916 45.4715 32.8673 44.0049 32.85C42.538 32.8323 41.2712 33.2181 41.1248 33.7266C40.9781 34.2354 40.818 35.4276 40.5115 36.5851C40.2047 37.7426 36.6446 48.1943 35.7113 50.8945C35.3341 51.9874 34.9385 53.0691 34.5246 54.1389C34.5246 54.1389 34.5112 54.1915 34.4712 54.2791C34.3411 54.6146 34.2079 54.9478 34.0714 55.2787V55.296C33.8712 55.7699 33.6579 56.208 33.5513 56.208C33.4712 56.208 33.3245 54.9455 33.5779 53.2269C34.1111 49.5971 35.3779 43.9504 35.3647 43.7575C35.3647 43.6522 35.6046 42.6703 34.5381 42.1614C33.4978 41.653 33.1246 42.4946 33.0311 42.4946C32.9379 42.4946 32.871 42.7929 32.871 42.7929C32.871 42.7929 34.0314 36.4448 30.6578 36.4448C28.5512 36.4448 25.6443 39.4786 24.2043 42.2141C22.5673 43.3857 20.9317 44.5607 19.2974 45.739C18.5111 46.3178 17.6976 46.8965 16.9375 47.4399C16.8841 47.37 16.8309 47.282 16.7774 47.2121C12.6972 41.4778 5.15056 37.4267 5.47053 29.7286C5.59063 26.9227 6.32379 19.5574 19.9643 10.6141C31.1911 3.33645 40.1249 5.35293 41.6716 9.82477C43.8848 16.2082 36.8848 28.0626 25.2843 29.7809C20.8576 30.43 18.5374 28.1852 17.9509 27.3436C17.3376 26.4666 17.2441 26.4139 17.0173 26.5896C16.6441 26.8528 16.8841 27.6418 17.0173 28.0976C17.3642 29.2897 18.7907 31.3942 21.2041 32.4292C23.3376 33.3407 28.5243 33.8496 34.8046 30.6579C41.8314 27.0803 47.325 17.1374 45.7117 8.80788C44.0981 0.355349 33.4312 -2.43283 23.3376 2.28421C17.3376 5.09043 10.8306 9.50925 6.15051 15.2612C0.590293 22.1 -0.289848 28.0449 0.0701581 30.5353C1.36378 39.3733 10.6307 45.1252 14.3374 49.3865C14.1507 49.5268 13.9771 49.6497 13.8307 49.755C11.9772 50.9648 4.91036 55.8221 3.15037 60.9604C1.15046 66.7823 3.47063 70.9563 5.00387 71.517C9.76401 73.2533 14.6574 70.132 17.2841 64.976C19.9108 59.8205 19.5908 53.1216 18.3776 50.0529C18.3641 50.0179 18.351 49.9825 18.3241 49.9476C18.8042 49.5794 19.2974 49.1936 19.7775 48.8254C20.6599 48.1394 21.5535 47.4786 22.4577 46.8435C22.0042 48.4745 21.6708 50.421 21.5109 53.2269C21.3108 56.5239 22.3373 60.8024 23.6841 62.4857C24.2843 63.2228 24.9909 63.2401 25.4444 63.2401C27.0177 63.2401 27.7245 61.5215 28.5112 59.4873C29.4711 56.9974 30.3378 54.1039 30.3378 54.1039C30.3378 54.1039 29.2578 61.925 32.1913 61.925C33.2579 61.925 34.3379 60.1011 34.818 59.1718V59.1891C34.818 59.1891 34.8446 59.1364 34.8981 59.0138C35.0047 58.786 35.0714 58.6453 35.0714 58.6453V58.6107C35.498 57.6284 36.4582 55.4013 37.8848 51.7012C39.7248 46.9315 41.4983 40.9693 41.4983 40.9693C41.4983 40.9693 41.6584 42.4247 42.2048 44.8447C42.5251 46.2651 43.1914 47.8258 43.7249 49.3338C43.2983 50.1232 43.0315 50.5613 43.0315 50.5613L43.045 50.579C42.6981 51.1751 42.3249 51.8238 41.9115 52.4556C40.458 54.7349 38.7249 57.3482 38.4847 58.1019C38.2045 58.9962 38.2714 59.6453 38.8049 60.1714C39.1915 60.5572 39.8847 60.6095 40.5915 60.5572C41.8983 60.4343 42.8182 60.0134 43.2714 59.7506C43.9783 59.4174 44.805 58.9085 45.5781 58.1545C47.005 56.7691 47.8714 54.7876 47.7917 52.175C47.7516 50.7369 47.3916 49.2989 46.9515 47.9484C47.0851 47.7032 47.2049 47.4576 47.3384 47.2121C49.5917 42.8805 51.3385 38.1281 51.3385 38.1281C51.3385 38.1281 51.4987 39.5835 52.0451 42.0039C52.3119 43.2314 52.8586 44.5641 53.3384 45.8616C51.2184 48.124 49.9117 50.7542 49.445 52.4729C48.6052 55.6646 49.2583 57.1023 50.4984 57.4355C51.0583 57.5934 51.8584 57.2426 52.4451 56.9094C53.1917 56.5938 54.0719 56.0504 54.912 55.2434C56.3389 53.8583 57.712 51.9291 57.6319 49.3165C57.5919 48.124 57.352 46.9488 57.0186 45.8089C58.8186 44.8274 61.1387 44.2836 64.0986 44.7394C70.4457 45.7213 71.699 50.9295 71.4588 53.122C71.2189 55.3137 69.8855 56.5062 69.4458 56.8744C69.0054 57.2429 68.859 57.3655 68.899 57.6284C68.9522 58.0143 69.1655 57.997 69.539 57.9266C70.0591 57.804 72.8725 56.1553 72.9923 52.122C73.1925 46.9665 69.4589 41.3375 62.8587 41.3901V41.3901ZM13.8974 63.0998C11.7905 66.1159 8.85727 67.2558 7.59053 66.2915C6.23057 65.2566 6.76386 60.8024 9.35053 57.6111C10.9238 55.6646 12.9506 53.8579 14.2974 52.7534C14.6039 52.5079 15.0574 52.1574 15.6042 51.7189C15.6974 51.6485 15.7509 51.6136 15.7509 51.6136L16.0708 51.3503C17.0173 55.9098 16.1109 59.9258 13.8974 63.0998V63.0998ZM29.2312 49.3865C28.4977 51.7365 26.9645 57.7514 26.0312 57.4182C25.2311 57.1376 24.7376 52.5782 25.871 48.0714C26.4444 45.8089 27.6576 43.1084 28.3645 42.0565C29.5111 40.3729 30.7779 39.8114 31.0844 40.4958C31.4713 41.3901 29.6844 47.9134 29.2312 49.3865V49.3865ZM41.8849 57.3479C41.5781 57.5585 41.285 57.6987 41.1514 57.5934C41.0582 57.5231 41.285 57.2426 41.285 57.2426C41.285 57.2426 42.8717 54.9982 43.4982 53.9809C43.8585 53.3848 44.2848 52.6835 44.7383 51.8941V52.122C44.7383 54.8053 42.7647 56.6115 41.8846 57.3479H41.8849ZM51.6451 54.4194C51.4183 54.2088 51.4583 53.5074 52.2184 51.3153C52.5118 50.456 53.2049 49.0183 54.3919 47.6329C54.5251 48.194 54.6186 48.7378 54.6052 49.2462C54.5917 52.6308 52.752 53.8933 51.6451 54.4194Z" fill="#AC38E2"/>
</svg>
